<svg xmlns="http://www.w3.org/2000/svg" viewBox="0 0 48 48"><title>armchair</title><g stroke-width="2" fill="#000000" stroke="#000000" class="nc-icon-wrapper"><line data-color="color-2" x1="13" y1="25" x2="35" y2="25" fill="none" stroke-linecap="square" stroke-miterlimit="10"></line><line x1="9" y1="45" x2="9" y2="41" fill="none" stroke="#000000" stroke-linecap="square" stroke-miterlimit="10"></line><line x1="39" y1="45" x2="39" y2="41" fill="none" stroke="#000000" stroke-linecap="square" stroke-miterlimit="10"></line><path data-color="color-2" d="M40,18V7a4,4,0,0,0-4-4H12A4,4,0,0,0,8,7V18" fill="none" stroke-linecap="square" stroke-miterlimit="10"></path><path d="M40,18a5,5,0,0,0-5,5V33H13V23a5,5,0,1,0-8,3.977V37a4,4,0,0,0,4,4H39a4,4,0,0,0,4-4V26.977A4.985,4.985,0,0,0,40,18Z" fill="none" stroke="#000000" stroke-linecap="square" stroke-miterlimit="10"></path></g></svg>