<svg width="48" height="49" viewBox="0 0 48 49" fill="none" xmlns="http://www.w3.org/2000/svg"><path d="M23.6 22.3C19.06 21.12 17.6 19.9 17.6 18C17.6 15.82 19.62 14.3 23 14.3C26.56 14.3 27.88 16 28 18.5H32.42C32.28 15.06 30.18 11.9 26 10.88V6.5H20V10.82C16.12 11.66 13 14.18 13 18.04C13 22.66 16.82 24.96 22.4 26.3C27.4 27.5 28.4 29.26 28.4 31.12C28.4 32.5 27.42 34.7 23 34.7C18.88 34.7 17.26 32.86 17.04 30.5H12.64C12.88 34.88 16.16 37.34 20 38.16V42.5H26V38.2C29.9 37.46 33 35.2 33 31.1C33 25.42 28.14 23.48 23.6 22.3Z" fill="#7B49EA"/></svg>
