<svg width="32" height="32" viewBox="0 0 32 32" fill="none" xmlns="http://www.w3.org/2000/svg"><path d="M9 21.1667L7 23.1067L9 24.9401L25 8.94006L23.12 7.06006L9 21.1667Z" fill="#FF0000"/><path d="M9 21.1667L7 23.1067L9 24.9401L25 8.94006L23.12 7.06006L9 21.1667Z" fill="#FF0000"/><path d="M9 21.1667L7 23.1067L9 24.9401L25 8.94006L23.12 7.06006L9 21.1667Z" fill="#FF0000"/><path d="M9 21.1667L7 23.1067L9 24.9401L25 8.94006L23.12 7.06006L9 21.1667Z" fill="#FF0000"/><path d="M9 21.1667L7 23.1067L9 24.9401L25 8.94006L23.12 7.06006L9 21.1667Z" fill="#FF0000"/><path d="M9 21.1667L7 23.1067L9 24.9401L25 8.94006L23.12 7.06006L9 21.1667Z" fill="#FF0000"/><path d="M10.8333 9L8.89332 7L7.05995 9L23.0599 25L24.9399 23.12L10.8333 9Z" fill="#FF0000"/<path d="M10.8333 9L8.89332 7L7.05995 9L23.0599 25L24.9399 23.12L10.8333 9Z" fill="#FF0000"/><path d="M10.8333 9L8.89332 7L7.05995 9L23.0599 25L24.9399 23.12L10.8333 9Z" fill="#FF0000"/></svg>
