<svg width="32" height="32" viewBox="0 0 32 32" fill="none" xmlns="http://www.w3.org/2000/svg">
<path d="M16 20.6667C18.5773 20.6667 20.6667 18.5774 20.6667 16C20.6667 13.4227 18.5773 11.3334 16 11.3334C13.4227 11.3334 11.3333 13.4227 11.3333 16C11.3333 18.5774 13.4227 20.6667 16 20.6667Z" stroke="#A1A4AE" strokeWidth="2" strokeMiterlimit="10" strokeLinecap="square"/>
<path d="M30.6667 18V14L26.4 13.644C26.1329 12.4642 25.6657 11.3388 25.0187 10.3167L27.7887 7.04337L24.9567 4.21471L21.6833 6.98471C20.6615 6.33633 19.5361 5.86798 18.356 5.60004L18 1.33337H14L13.644 5.60004C12.4641 5.86713 11.3388 6.33433 10.3167 6.98137L7.04333 4.21137L4.21466 7.04337L6.98466 10.3167C6.33628 11.3385 5.86794 12.4639 5.59999 13.644L1.33333 14V18L5.59999 18.356C5.86708 19.5359 6.33428 20.6613 6.98133 21.6834L4.21133 24.9567L7.04 27.7854L10.3133 25.0154C11.3361 25.6641 12.4627 26.1325 13.644 26.4L14 30.6667H18L18.356 26.3967C19.5358 26.1296 20.6612 25.6624 21.6833 25.0154L24.9567 27.7854L27.7853 24.9567L25.0153 21.6834C25.6637 20.6616 26.1321 19.5362 26.4 18.356L30.6667 18Z" stroke="#A1A4AE" strokeWidth="2" strokeMiterlimit="10" strokeLinecap="square"/>
</svg>
