<svg width="48" height="48" viewBox="0 0 48 48" fill="none" xmlns="http://www.w3.org/2000/svg"><path d="M24 4C16.26 4 10 10.26 10 18C10 21.48 11 24.74 12.82 27.68C14.72 30.76 17.22 33.4 19.14 36.48C20.08 37.98 20.76 39.38 21.48 41C22 42.1 22.42 44 24 44C25.58 44 26 42.1 26.5 41C27.24 39.38 27.9 37.98 28.84 36.48C30.76 33.42 33.26 30.78 35.16 27.68C37 24.74 38 21.48 38 18C38 10.26 31.74 4 24 4ZM24 23.5C22.6739 23.5 21.4021 22.9732 20.4645 22.0355C19.5268 21.0979 19 19.8261 19 18.5C19 17.1739 19.5268 15.9021 20.4645 14.9645C21.4021 14.0268 22.6739 13.5 24 13.5C25.3261 13.5 26.5979 14.0268 27.5355 14.9645C28.4732 15.9021 29 17.1739 29 18.5C29 19.8261 28.4732 21.0979 27.5355 22.0355C26.5979 22.9732 25.3261 23.5 24 23.5Z" fill="#7B49EA"/></svg>