<svg width="36" height="43" viewBox="0 0 36 43" fill="none" xmlns="http://www.w3.org/2000/svg"><path d="M22.5 26.3499H13.5C9.91958 26.3499 6.4858 27.7722 3.95406 30.3039C1.42232 32.8357 0 36.2694 0 39.8499C0 39.8499 6.75 42.8499 18 42.8499C29.25 42.8499 36 39.8499 36 39.8499C36 36.2694 34.5777 32.8357 32.0459 30.3039C29.5142 27.7722 26.0804 26.3499 22.5 26.3499Z" fill="#7B49EA"/><path d="M8.25 9.90015C8.25 7.31429 9.27723 4.83434 11.1057 3.00586C12.9342 1.17738 15.4141 0.150146 18 0.150146C20.5859 0.150146 23.0658 1.17738 24.8943 3.00586C26.7228 4.83434 27.75 7.31429 27.75 9.90015C27.75 15.3121 23.385 21.0999 18 21.0999C12.615 21.0999 8.25 15.3121 8.25 9.90015Z" fill="#7B49EA"/></svg>
