<svg width="48" height="49" viewBox="0 0 48 49" fill="none" xmlns="http://www.w3.org/2000/svg"><path d="M44.1615 32.3285C43.0643 31.697 41.7758 31.4832 40.5335 31.7266C39.2911 31.9699 38.1785 32.654 37.4006 33.6527C36.6227 34.6515 36.232 35.8977 36.3002 37.1619C36.3685 38.426 36.8913 39.6229 37.7722 40.532C34.3069 44.0093 29.6546 46.0472 24.7491 46.2365C19.8436 46.4258 15.048 44.7526 11.325 41.5528C10.9711 41.918 10.5768 42.2418 10.1497 42.518C14.1755 46.0671 19.4103 47.9351 24.7734 47.7364C30.1366 47.5376 35.2187 45.2873 38.9707 41.45C40.1772 42.0914 41.5861 42.2372 42.8983 41.8565C44.2105 41.4757 45.3225 40.5984 45.9983 39.4109C46.674 38.2234 46.8601 36.8192 46.5172 35.4966C46.1742 34.174 45.3292 33.0373 44.1615 32.3278V32.3285Z" fill="#7B49EA"/><path d="M29.2455 6.41307C29.2261 5.08467 28.7044 3.81289 27.7854 2.85351C26.8663 1.89414 25.6181 1.31832 24.2918 1.24187C22.9655 1.16542 21.6594 1.59402 20.6362 2.44145C19.613 3.28888 18.9487 4.4923 18.7768 5.80967C18.6048 7.12704 18.9381 8.46065 19.7095 9.54228C20.481 10.6239 21.6333 11.3733 22.9349 11.6398C24.2364 11.9063 25.5906 11.6701 26.725 10.9787C27.8595 10.2873 28.6901 9.192 29.0498 7.91307C33.7967 9.17987 37.8893 12.1943 40.5069 16.352C43.1245 20.5097 44.0737 25.5032 43.164 30.3313C43.6579 30.4567 44.136 30.6378 44.589 30.8713C45.6437 25.6057 44.6411 20.1362 41.7873 15.5871C38.9335 11.0379 34.4453 7.75497 29.2455 6.41307Z" fill="#7B49EA"/><path d="M5.16599 31.7923C3.89286 27.0492 4.45789 22.0002 6.748 17.6559C9.0381 13.3115 12.8843 9.99223 17.517 8.3623C17.3775 7.87333 17.294 7.37011 17.268 6.8623C12.181 8.57925 7.9459 12.1812 5.43454 16.9265C2.92319 21.6719 2.32674 27.1995 3.76799 32.3713C2.62758 33.0518 1.78715 34.1389 1.41571 35.4139C1.04428 36.6889 1.16939 38.0572 1.7659 39.2437C2.36241 40.4302 3.38605 41.3468 4.63096 41.8092C5.87586 42.2716 7.24968 42.2455 8.47609 41.7361C9.7025 41.2267 10.6905 40.2718 11.2415 39.0634C11.7924 37.8551 11.8654 36.483 11.4457 35.223C11.0261 33.9631 10.1449 32.9088 8.97942 32.2721C7.81395 31.6355 6.45066 31.4638 5.16374 31.7916L5.16599 31.7923Z" fill="#7B49EA"/></svg>